<svg width="137" height="70" viewBox="0 0 137 70" fill="none" xmlns="http://www.w3.org/2000/svg">
<g id="logo_kra" clip-path="url(#clip0_101_688)">
<path id="Vector" d="M4.88226 17.9497H0V41.4953H4.88226V17.9497Z" fill="#144782"/>
<g id="Group">
<path id="Vector_2" d="M28.9569 17.9497L12.1776 28.9026C11.8329 29.1335 11.6405 29.42 11.6405 29.7145C11.6405 30.0091 11.8329 30.3036 12.1776 30.5265L28.9569 41.4794H20.8198L7.76836 32.9543C6.44558 32.0946 5.72406 30.9483 5.72406 29.7145C5.72406 28.4808 6.45359 27.3266 7.76836 26.4748L20.8198 17.9497H28.9569Z" fill="#144782"/>
<path id="Vector_3" d="M61.0484 24.6998C61.0484 20.4412 56.9678 17.9497 51.5564 17.9497H30.1113V21.2929H50.5142C53.4644 21.2929 55.8615 22.3914 55.8615 24.6998C55.8615 27.0082 53.4644 28.1066 50.5142 28.1066H43.0746C40.7898 28.1066 39.002 28.7673 38.2965 29.8737C37.7514 30.7255 37.6392 32.1025 40.1805 33.7582L52.0454 41.4953H60.1825C60.1825 41.4953 45.1349 31.6886 44.7741 31.4498H51.5404C56.9517 31.4498 61.0323 28.9504 61.0323 24.6998" fill="#144782"/>
<path id="Vector_4" d="M98.3027 41.4873L83.9285 20.067C82.5817 18.0611 80.6015 17.7666 79.5513 17.7666C78.5011 17.7666 76.5129 18.0691 75.1741 20.067L60.7999 41.4873H66.8125C66.8125 41.4873 77.531 25.5196 79.5513 22.5028C81.5715 25.5117 92.2901 41.4873 92.2901 41.4873H98.3107H98.3027Z" fill="#144782"/>
</g>
<g id="Clip path group">
<mask id="mask0_101_688" style="mask-type:luminance" maskUnits="userSpaceOnUse" x="30" y="7" width="29" height="44">
<g id="clippath">
<path id="Vector_5" d="M58.1061 7.02869C42.6416 7.02869 30.0472 19.5179 30.0311 34.8727C30.0311 40.6914 31.8109 46.2634 35.186 50.9916L37.8075 49.1449C34.8172 44.958 33.2459 40.0228 33.2459 34.8727C33.2619 21.2611 44.4214 10.2047 58.1222 10.2206V7.02869H58.0981" fill="white"/>
</g>
</mask>
<g mask="url(#mask0_101_688)">
<g id="Group_2">
<path id="Vector_6" d="M56.2144 0.00349978L18.8722 10.0216L31.9355 58.0261L69.2777 48.008L56.2144 0.00349978Z" fill="url(#paint0_linear_101_688)"/>
</g>
</g>
</g>
<g id="Group_3">
<path id="Vector_7" d="M61.9142 55.4253V53.8811H58.3466V51.7001H55.661V53.8811H52.0935V55.4253H54.3943L54.2581 55.5288C53.8011 55.895 53.4243 56.3487 53.1357 56.89C52.8471 57.4233 52.7028 58.0123 52.7028 58.6332C52.7028 59.7476 53.1277 60.7187 53.9694 61.5147C54.8112 62.3187 55.8374 62.7246 57.0078 62.7246C58.1783 62.7246 59.2045 62.3187 60.0382 61.5147C60.872 60.7108 61.2968 59.7396 61.2968 58.6253C61.2968 58.0044 61.1525 57.4233 60.8639 56.882C60.5753 56.3407 60.1985 55.887 59.7416 55.5209L59.6133 55.4174H61.9142V55.4253ZM58.2264 60.4879C57.8737 61.0212 57.4648 61.2839 57.0078 61.2839C56.5509 61.2839 56.142 61.0132 55.7813 60.4879C55.4285 59.9625 55.2521 59.3417 55.2521 58.6332C55.2521 57.9248 55.4285 57.3039 55.7813 56.7865C56.134 56.2691 56.5509 55.9985 57.0078 55.9985C57.4648 55.9985 57.8737 56.2611 58.2264 56.7865C58.5711 57.3039 58.7395 57.9248 58.7395 58.6332C58.7395 59.3417 58.5631 59.9625 58.2264 60.4879Z" fill="#515151"/>
<path id="Vector_8" d="M66.8044 70V68.4319H57.9138V64.2211H55.2201V68.0817C55.2201 68.6707 55.4045 69.1403 55.7572 69.4826C56.118 69.8249 56.5749 70 57.1121 70H66.8044Z" fill="#515151"/>
<path id="Vector_9" d="M66.1791 51.907H63.4935V65.2479H66.1791V57.662H68.993V56.1019H66.1791V51.907Z" fill="#515151"/>
<path id="Vector_10" d="M85.3875 60.472V58.9039H82.6458L82.7099 58.8163C82.8863 58.5616 83.0466 58.1397 83.1829 57.5666C83.3112 56.9935 83.3753 56.4442 83.3753 55.9348V51.9946H71.5184V53.5627H80.6896V56.0144C80.6896 56.5239 80.6656 57.0333 80.6255 57.5348C80.5854 58.0362 80.4892 58.482 80.3449 58.8641L80.3289 58.9039H69.5863V60.472H76.088V63.5047H71.4462V65.0649H80.6576V69.9921H83.3432V63.4968H78.7816V60.464H85.3955L85.3875 60.472Z" fill="#515151"/>
<path id="Vector_11" d="M96.098 52.4961H87.5841V61.5625C87.5841 62.1356 87.7605 62.6053 88.0972 62.9475C88.4339 63.2898 88.8909 63.4649 89.46 63.4649H96.098V52.4961ZM90.2698 54.0563H93.4043V61.8968H90.2698V54.0563Z" fill="#515151"/>
<path id="Vector_12" d="M101.06 51.907H98.3668V69.992H101.06V57.9247H103.874V56.3566H101.06V51.907Z" fill="#515151"/>
<path id="Vector_13" d="M114.906 62.4301C113.807 62.1834 112.813 61.4511 111.955 60.2491C111.073 59.0074 110.617 57.5029 110.617 55.7517V52.3051H107.891V55.7517C107.891 57.487 107.45 58.9914 106.576 60.2411C105.726 61.4511 104.732 62.1834 103.61 62.4301L104.901 63.6241C105.782 63.5286 106.672 63.1147 107.562 62.3983C108.46 61.666 109.013 60.8859 109.206 60.074L109.262 59.8432L109.326 60.066C109.542 60.8859 110.103 61.666 110.993 62.3983C111.867 63.1227 112.765 63.5366 113.655 63.6162L114.914 62.4222L114.906 62.4301Z" fill="#515151"/>
<path id="Vector_14" d="M118.473 51.907H115.779V69.992H118.473V57.8292H121.279V56.2611H118.473V51.907Z" fill="#515151"/>
<path id="Vector_15" d="M134.306 51.907V63.3535L134.266 63.3694C133.922 63.4888 133.489 63.5843 132.976 63.6719C132.471 63.7515 131.909 63.7913 131.292 63.7913H129.079V62.3664L129.119 62.3505C129.953 62.0719 130.651 61.5625 131.18 60.862C131.717 60.1536 131.981 59.3496 131.981 58.474C131.981 57.9327 131.869 57.4074 131.645 56.9218C131.428 56.4363 131.124 56.0064 130.763 55.6403L130.659 55.5368H132.695V53.9926H129.071V51.8115H126.378V53.9926H122.77V55.5368H124.814L124.71 55.6403C124.333 55.9985 124.037 56.4283 123.812 56.9218C123.596 57.4074 123.492 57.9327 123.492 58.474C123.492 59.3576 123.764 60.1615 124.293 60.862C124.822 61.5705 125.512 62.064 126.338 62.3346H126.378V63.7913H122.666V65.3594H131.18C131.757 65.3594 132.318 65.2957 132.839 65.1684C133.36 65.041 133.825 64.8977 134.202 64.7226L134.282 64.6828V70.0001H136.976V51.907H134.282H134.306ZM127.749 61.0929C127.292 61.0929 126.883 60.8222 126.554 60.2969C126.225 59.7795 126.057 59.1586 126.057 58.4661C126.057 57.7735 126.225 57.1527 126.554 56.6353C126.891 56.102 127.292 55.8393 127.749 55.8393C128.206 55.8393 128.622 56.1099 128.959 56.6353C129.28 57.1527 129.448 57.7735 129.448 58.4661C129.448 59.1586 129.288 59.7795 128.959 60.2969C128.63 60.8302 128.222 61.0929 127.749 61.0929Z" fill="#515151"/>
</g>
</g>
<defs>
<linearGradient id="paint0_linear_101_688" x1="47.5945" y1="46.5127" x2="40.5108" y2="20.1084" gradientUnits="userSpaceOnUse">
<stop stop-color="white"/>
<stop offset="0.02" stop-color="#EDF8F8"/>
<stop offset="0.09" stop-color="#BCE7E3"/>
<stop offset="0.17" stop-color="#8FD7D1"/>
<stop offset="0.25" stop-color="#68CAC1"/>
<stop offset="0.34" stop-color="#48BEB4"/>
<stop offset="0.43" stop-color="#2DB5A9"/>
<stop offset="0.53" stop-color="#19ADA1"/>
<stop offset="0.64" stop-color="#0BA89B"/>
<stop offset="0.78" stop-color="#02A598"/>
<stop offset="1" stop-color="#00A597"/>
</linearGradient>
<clipPath id="clip0_101_688">
<rect width="137" height="70" fill="white"/>
</clipPath>
</defs>
</svg>
